<svg xmlns="http://www.w3.org/2000/svg" viewBox="0 0 113.38583 113.38583">
  <defs>
    <style>
      .cls-1, .cls-3 {
        fill: #FFFFFF;
      }

      .cls-1, .cls-2, .cls-3 {
        stroke: #0000FF;
        stroke-miterlimit: 10;
      }

      .cls-2 {
        fill: #0000FF;
      }
    </style>
  </defs>
  <g id="Livello_1" data-name="Livello 1">
    <g>
      <polygon class="cls-1" points="32.463 81.103 73.793 81.103 86.383 81.103 91.623 81.103 91.623 21.953 32.463 21.953 32.463 27.183 32.463 39.093 32.463 81.103"/>
      <polygon class="cls-2" points="27.233 78.983 27.233 86.343 34.753 86.343 67.933 86.343 86.383 86.343 86.383 81.103 86.383 27.183 32.463 27.183 27.233 27.183 27.233 44.733 27.233 78.983"/>
      <path class="cls-3" d="M32.46291,39.09291a29.58109,29.58109,0,1,1-2.03,43.68,28.909,28.909,0,0,1-3.2-3.79,29.584,29.584,0,0,1,5.23-39.89Z"/>
    </g>
  </g>
</svg>
